<svg width="1931" height="662" viewBox="0 0 1931 662" fill="none" xmlns="http://www.w3.org/2000/svg">
<path d="M578.051 213.099C577.423 215.062 577.178 216.072 576.796 217.051C565.98 246.092 555.111 275.106 544.431 304.176C543.452 306.816 542.196 307.527 539.526 307.501C510.433 307.228 481.362 307.145 452.269 306.899C449.678 306.873 448.506 307.417 447.935 310.223C442.924 334.635 437.69 358.99 432.543 383.371C422.162 432.493 411.429 481.474 394.048 528.743C387.456 546.642 379.609 563.914 370.075 580.478C353.318 609.628 328.445 629.543 298.615 643.789C270.391 657.275 240.56 663.568 209.285 661.389C181.334 659.457 155.723 650.955 134.663 631.585C117.8 616.083 108.455 596.634 105.051 574.155C102.135 554.977 105.134 536.208 109.135 517.519C120.39 465.129 131.694 412.767 142.945 360.378C146.844 342.206 150.682 324.035 154.714 305.156C103.172 305.156 51.955 305.156 0 305.156C1.854 300.198 3.37801 296.057 4.93201 291.916C14.765 265.519 24.628 239.175 34.328 212.748C35.334 209.995 36.642 209.261 39.475 209.287C83.801 209.696 128.154 209.968 172.477 210.293C196.234 210.46 219.965 210.675 243.718 210.868C273.795 211.114 303.845 211.33 333.895 211.602C346.537 211.712 359.176 211.848 371.788 212.041C373.562 212.067 374.515 211.738 375.003 209.806C384.378 172.154 393.802 134.533 403.2 96.8812C403.336 96.3631 403.419 95.845 403.639 94.8126C326.241 94.4571 249.058 94.1281 171.414 93.7764C171.796 92.4943 172.015 91.4884 172.371 90.5354C183.429 60.784 194.543 31.0629 205.552 1.28508C205.995 0.0862502 207.239 0.0597727 209.667 0.0862452C251.047 0.468206 292.458 -0.212517 333.842 0.0862452C349.752 0.195917 365.632 -0.0234267 381.542 0.0862452C422.272 0.385007 463.028 -0.212517 503.758 0.0862452C530.454 0.275335 557.126 -0.106626 583.826 0.0862452C614.421 0.332062 645.042 -0.106626 675.637 0.0862452C689.667 0.165663 703.724 0.0862452 718.301 0.0862452C717.371 3.38775 716.751 6.77624 715.581 9.99833C705.491 37.6962 695.374 65.3978 685.36 93.1221C684.543 95.4101 683.401 95.9812 681.113 95.9547C633.844 95.7354 586.549 95.6294 539.28 95.4366C526.861 95.3836 514.438 95.2739 502.041 95.1113C500.025 95.0849 498.963 95.4631 498.444 97.6981C489.482 135.565 480.436 173.41 471.42 211.25C471.337 211.549 471.31 211.874 471.121 213.099C506.727 213.099 542.117 213.099 578.051 213.099ZM350.486 306.816C349.313 306.71 348.553 306.574 347.816 306.574C319.403 306.381 290.96 306.245 262.544 305.999C260.309 305.973 259.685 306.846 259.167 308.862C247.916 351.524 236.529 394.16 225.248 436.796C216.64 469.35 208.06 501.934 199.641 534.544C198.768 537.921 198.359 541.737 198.93 545.141C200.239 552.825 206.479 557.186 215.468 557.375C230.614 557.7 245.734 558.139 260.884 558.165C273.522 558.192 283.438 552.496 289.788 541.628C292.949 536.235 295.181 530.214 297.196 524.273C308.069 492.343 315.723 459.517 323.325 426.688C331.414 391.872 339.072 356.944 346.946 322.045C348.088 317.061 349.287 312.05 350.486 306.816Z" fill="#2F9BED"/>
<path d="M1812.32 372.516C1811.83 375.613 1810.48 378.332 1808.7 380.718C1806.82 383.233 1804.68 385.623 1801.7 387.019C1800.54 387.556 1799.53 388.335 1798.29 388.774C1792.43 390.839 1786.59 390.767 1780.93 388.411C1776.77 386.686 1773.29 384.016 1770.84 379.996C1769.05 377.065 1768.01 373.979 1767.36 370.693C1766.87 368.223 1766.82 365.75 1767.55 363.3C1767.72 362.725 1767.84 362.135 1767.97 361.549C1768.34 359.862 1768.86 358.251 1769.83 356.784C1770.68 355.501 1771.32 354.08 1772.22 352.835C1773.91 350.498 1776.3 348.933 1778.72 347.461C1781.94 345.502 1785.48 344.561 1789.26 344.602C1789.86 344.61 1790.47 344.636 1791.07 344.618C1796.32 344.44 1800.74 346.561 1804.77 349.662C1808.73 352.714 1811.01 356.87 1812.34 361.613C1812.79 363.247 1813.27 363.542 1814.91 363.273C1818.98 362.604 1822.93 361.412 1826.9 360.342C1830.37 359.412 1833.84 358.425 1837.21 357.207C1840.83 355.899 1844.34 354.288 1847.9 352.805C1849.09 352.313 1850.28 351.837 1851.45 351.307C1856.06 349.224 1860.5 346.784 1864.73 344.016C1870.34 340.348 1875.6 336.26 1880.25 331.389C1883.95 327.516 1886.74 323.046 1889.52 318.523C1890.65 316.678 1891.42 314.703 1892.16 312.726C1892.87 310.808 1893.51 308.861 1894.03 306.856C1895.58 300.787 1895.91 294.637 1895.39 288.465C1895 283.863 1894.08 279.332 1892.59 274.9C1890.61 269.031 1888.05 263.464 1885.09 258.045C1882.9 254.044 1880.35 250.303 1877.6 246.684C1875.9 244.43 1874.24 242.146 1872.46 239.953C1867.39 233.671 1861.93 227.745 1855.99 222.269C1853.22 219.712 1850.45 217.152 1847.61 214.671C1845.55 212.875 1843.37 211.207 1841.24 209.486C1840.72 209.063 1840.16 208.995 1839.57 209.324C1838.75 209.785 1837.88 210.194 1837.12 210.753C1835.04 212.304 1832.76 213.408 1830.32 214.297C1829.05 214.758 1827.88 215.526 1826.61 216.184C1826.49 216.789 1826.35 217.364 1826.27 217.946C1825.94 220.234 1825.62 222.522 1825.34 224.818C1825.17 226.179 1825.12 227.556 1824.94 228.914C1824.52 232.052 1824.08 235.191 1823.61 238.323C1823.32 240.274 1822.97 242.218 1822.61 244.154C1821.6 249.547 1820.65 254.947 1819.53 260.318C1818.06 267.454 1816.58 274.59 1814.63 281.62C1813.09 287.149 1811.67 292.72 1810.03 298.222C1808.42 303.646 1806.71 309.046 1804.83 314.382C1802.39 321.337 1799.73 328.216 1797.16 335.129C1796.84 336.014 1796.58 336.929 1796.2 337.788C1795.98 338.306 1795.59 338.752 1795.03 339.595C1794.87 338.729 1794.63 338.245 1794.73 337.833C1795.94 332.482 1796.8 327.07 1797.53 321.632C1798.09 317.472 1798.8 313.334 1799.41 309.182C1799.69 307.234 1799.89 305.272 1800.12 303.313C1800.27 301.951 1800.41 300.586 1800.56 299.221C1800.95 295.462 1801.34 291.706 1801.73 287.955C1801.92 286.166 1802.13 284.381 1802.28 282.589C1802.48 280.108 1802.61 277.623 1802.8 275.142C1803.06 271.72 1803.33 268.301 1803.6 264.882C1803.63 264.538 1803.65 264.198 1803.66 263.854C1804.24 251.93 1804.43 239.998 1804.35 228.063C1804.33 224.799 1804.26 221.535 1804.29 218.272C1804.31 216.676 1803.69 215.859 1802.17 215.212C1799.19 213.941 1796.2 212.618 1793.49 210.821C1789.98 208.496 1786.79 205.814 1784.09 202.524C1781.73 199.654 1779.89 196.481 1778.23 193.202C1777.43 191.614 1777.06 189.806 1776.53 188.089C1776.28 187.268 1776.13 186.421 1775.9 185.593C1774.67 181.047 1774.58 176.453 1775.29 171.82C1775.3 171.737 1775.3 171.65 1775.31 171.566C1775.76 168.412 1775.67 168.325 1772.74 166.892C1769.97 165.538 1767.27 164.044 1764.49 162.694C1758.33 159.688 1752.16 156.719 1745.84 154.064C1743.62 153.13 1741.46 152.075 1739.25 151.145C1736.48 149.98 1733.69 148.88 1730.9 147.768C1727.96 146.592 1725.02 145.37 1722.05 144.281C1717.15 142.484 1712.25 140.665 1707.33 138.941C1704.5 137.95 1701.55 137.307 1698.74 136.271C1695.92 135.231 1693.07 134.331 1690.19 133.491C1686.25 132.338 1682.24 131.37 1678.31 130.171C1676.84 129.721 1675.33 129.415 1673.87 128.938C1669.3 127.448 1664.59 126.48 1659.91 125.432C1655.74 124.495 1651.62 123.288 1647.35 122.762C1644.72 122.441 1642.15 121.651 1639.56 121.068C1639.14 120.974 1638.73 120.856 1638.31 120.762C1635.87 120.221 1635.58 120.387 1634.51 122.573C1632.64 126.401 1630.02 129.581 1626.67 132.266C1623.15 135.08 1619.15 136.679 1614.86 137.708C1613.71 137.984 1612.48 138.026 1611.29 138.071C1609.84 138.12 1608.9 138.778 1608.27 140.072C1605.47 145.854 1602.58 151.602 1599.8 157.396C1597.51 162.184 1595.52 167.108 1593.45 171.998C1590.57 178.793 1587.98 185.695 1585.48 192.635C1582.75 200.221 1580.26 207.887 1578.18 215.681C1577.12 219.656 1575.98 223.611 1574.9 227.586C1574.7 228.327 1574.66 229.11 1574.48 229.863C1574.36 230.358 1574.19 230.85 1573.95 231.296C1573.86 231.47 1573.53 231.61 1573.32 231.599C1573.11 231.583 1572.78 231.394 1572.73 231.22C1572.52 230.487 1572.3 229.734 1572.26 228.985C1572 223.494 1571.67 218.011 1571.6 212.516C1571.53 206.423 1571.62 200.319 1571.83 194.227C1571.97 190.203 1572.23 186.176 1572.95 182.193C1573.35 180.004 1573.46 177.765 1573.71 175.549C1574.22 171.116 1574.85 166.707 1575.86 162.35C1576.51 159.514 1576.96 156.628 1577.52 153.769C1577.6 153.35 1577.66 152.903 1577.86 152.54C1578.68 151.08 1578.85 149.443 1579.23 147.866C1579.61 146.285 1579.93 144.685 1580.38 143.124C1581.36 139.659 1582.36 136.195 1583.45 132.765C1584.07 130.806 1584.85 128.893 1585.63 126.99C1585.94 126.204 1585.97 125.512 1585.56 124.782C1585.34 124.411 1585.17 124.018 1584.94 123.651C1583.43 121.204 1582.73 118.459 1582.06 115.709C1581.63 113.958 1581.27 113.535 1579.52 113.414C1577.55 113.278 1575.57 113.183 1573.6 113.13C1566.22 112.937 1558.83 112.718 1551.45 112.62C1546.9 112.559 1542.34 112.737 1537.79 112.748C1536.37 112.752 1534.89 113.009 1533.29 112.302C1533.57 111.977 1533.72 111.606 1533.94 111.557C1536.7 110.941 1539.47 110.366 1542.23 109.787C1542.4 109.753 1542.58 109.783 1542.74 109.73C1546.34 108.535 1550.12 108.308 1553.81 107.579C1557.59 106.83 1561.42 106.289 1565.24 105.767C1567.53 105.453 1569.85 105.34 1572.16 105.147C1574.81 104.928 1577.46 104.735 1580.11 104.496C1581.81 104.345 1582.13 104.005 1582.67 102.182C1583.39 99.6935 1584.53 97.4017 1586.01 95.265C1586.05 95.1969 1586.13 95.1403 1586.16 95.0684C1588.17 90.9538 1592 88.6961 1595.42 86.0337C1597.49 85.2093 1599.51 84.2525 1601.63 83.5907C1603.92 82.8759 1606.3 82.3729 1608.72 82.4334C1610.1 82.4675 1611.02 81.8775 1611.7 80.7884C1613.79 77.4301 1616.47 74.5257 1618.83 71.3679C1619.95 69.8589 1621.23 68.4635 1622.47 67.0453C1624.83 64.3413 1627.14 61.5958 1629.6 58.9863C1632.06 56.3618 1634.69 53.8884 1637.23 51.3282C1642.42 46.0828 1648 41.2724 1653.59 36.4658C1654.88 35.3539 1656.33 34.4311 1657.71 33.4214C1658.42 32.9033 1658.98 32.2907 1659.18 31.4284C1658.8 30.6607 1658.11 30.604 1657.42 30.5283C1645.45 29.2841 1633.46 28.4748 1621.42 28.7168C1614.72 28.8568 1608.02 29.0269 1601.34 29.5072C1595.87 29.9005 1590.43 30.7325 1584.98 31.4511C1581.58 31.9011 1578.2 32.4759 1574.81 33.0621C1573.38 33.3079 1571.98 33.758 1570.56 34.0794C1569.55 34.3025 1568.54 34.4803 1567.53 34.6202C1567.35 34.6467 1567.01 34.4387 1566.96 34.2685C1566.9 34.0794 1567 33.7428 1567.15 33.5991C1567.46 33.3079 1567.83 33.0735 1568.2 32.8768C1568.96 32.476 1569.74 32.1091 1570.51 31.7423C1575.08 29.5791 1579.61 27.363 1584.21 25.2754C1587.17 23.9291 1590.21 22.7416 1593.25 21.5466C1596.35 20.3288 1599.47 19.1413 1602.61 18.0257C1604.96 17.1937 1607.35 16.4903 1609.72 15.7377C1611.76 15.0873 1613.79 14.4141 1615.84 13.8128C1617.98 13.185 1620.13 12.5913 1622.3 12.0656C1626.21 11.1088 1630.13 10.1218 1634.08 9.32002C1637.94 8.53719 1641.84 7.95102 1645.74 7.30812C1647.52 7.01314 1649.3 6.78246 1651.09 6.54421C1653.22 6.26058 1655.34 5.96561 1657.47 5.7387C1664.48 4.99747 1671.5 4.52852 1678.55 4.54743C1683.88 4.56255 1689.21 4.49066 1694.53 4.72135C1699.32 4.92935 1704.13 5.05793 1708.88 5.92774C1710.81 6.27945 1712.8 6.44589 1714.76 6.53665C1717.69 6.66902 1720.55 7.19086 1723.42 7.65603C1727.15 8.25733 1730.83 9.11583 1734.55 9.75495C1739.03 10.5264 1743.38 11.8614 1747.81 12.8409C1749.39 13.1926 1750.93 13.7296 1752.48 14.1948C1760.95 16.7399 1769.37 19.4099 1777.45 23.0177C1782.46 25.2527 1787.54 27.3516 1792.45 29.772C1797.14 32.0751 1801.66 34.7224 1806.26 37.207C1812.83 40.7619 1819.09 44.8084 1825.14 49.1801C1829.37 52.2358 1833.6 55.299 1837.68 58.5627C1841.81 61.8794 1845.91 65.2565 1849.68 69.0194C1852.7 72.0411 1855.89 74.9076 1858.94 77.899C1863.72 82.5696 1868.27 87.4556 1872.43 92.6972C1875.41 96.4563 1878.56 100.091 1881.4 103.959C1884.18 107.753 1887.09 111.459 1889.48 115.543C1890.76 117.748 1892.32 119.794 1893.68 121.957C1894.86 123.84 1895.96 125.784 1897.06 127.724C1898.46 130.179 1899.9 132.614 1901.16 135.136C1903.74 140.272 1906.29 145.419 1908.69 150.638C1910.34 154.204 1911.71 157.895 1913.18 161.537C1915.15 166.382 1917 171.271 1918.54 176.263C1920.55 182.817 1922.39 189.424 1923.92 196.114C1924.4 198.205 1924.69 200.331 1925.17 202.407C1925.74 204.914 1926.13 207.452 1926.65 209.963C1927.02 211.809 1927.19 213.696 1927.46 215.564C1927.55 216.241 1927.69 216.914 1927.77 217.595C1928.17 220.741 1928.62 223.884 1928.92 227.042C1929.27 230.714 1929.51 234.397 1929.74 238.077C1929.88 240.304 1929.95 242.539 1929.98 244.771C1930.09 252.584 1930.11 260.405 1929.5 268.199C1929.02 274.182 1928.39 280.149 1927.5 286.087C1926.74 291.177 1925.98 296.267 1924.87 301.293C1923.81 306.066 1922.72 310.831 1921.52 315.566C1920.87 318.137 1919.85 320.611 1919.2 323.179C1918.43 326.17 1917.43 329.074 1916.4 331.975C1914.54 337.228 1912.63 342.451 1910.29 347.518C1908.86 350.627 1907.61 353.815 1906.24 356.954C1905.79 357.971 1905.27 358.966 1904.73 359.938C1901.82 365.179 1899.25 370.602 1896.15 375.749C1891.63 383.241 1886.82 390.544 1881.64 397.589C1878.29 402.142 1874.73 406.544 1871.08 410.863C1866.64 416.101 1861.95 421.097 1857.05 425.896C1854.78 428.116 1852.53 430.354 1850.19 432.506C1847.36 435.112 1844.54 437.721 1841.45 440.043C1838.5 442.256 1835.79 444.771 1832.85 446.991C1829.3 449.676 1825.65 452.225 1821.99 454.774C1819.61 456.441 1817.16 458.022 1814.72 459.607C1813.07 460.681 1811.39 461.709 1809.69 462.704C1809.47 462.836 1808.94 462.772 1808.79 462.594C1808.65 462.42 1808.68 461.887 1808.85 461.694C1809.79 460.594 1810.78 459.531 1811.78 458.483C1815.22 454.902 1818.74 451.396 1822.09 447.732C1823.94 445.716 1825.42 443.387 1827.19 441.295C1829.01 439.14 1830.66 436.855 1832.29 434.564C1835.58 429.957 1838.84 425.321 1841.62 420.389C1844.28 415.689 1846.97 411.003 1849.44 406.204C1851.56 402.089 1853.57 397.91 1855.13 393.531C1856.2 390.551 1857.5 387.654 1858.63 384.693C1859.24 383.093 1859.74 381.452 1860.23 379.807C1860.46 378.994 1860.03 378.438 1859.22 378.378C1858.71 378.34 1858.19 378.4 1857.68 378.385C1852.61 378.215 1847.52 378.275 1842.49 377.795C1838.5 377.413 1834.48 376.967 1830.55 375.98C1828.73 375.519 1826.86 375.231 1825 374.936C1821.68 374.407 1818.51 373.329 1815.28 372.455C1814.38 372.209 1813.48 371.858 1812.32 372.516ZM1636.56 104.307C1637.99 104.519 1639.16 104.731 1640.35 104.859C1642.65 105.113 1644.96 105.279 1647.26 105.548C1652.54 106.168 1657.81 106.818 1663.09 107.492C1664.78 107.711 1666.46 108.127 1668.16 108.32C1674.46 109.042 1680.69 110.256 1686.91 111.508C1692.95 112.726 1699.02 113.879 1704.98 115.532C1709.68 116.84 1714.44 117.948 1719.17 119.17C1726.22 120.996 1733.21 123.069 1740.1 125.413C1747.07 127.785 1754.01 130.247 1760.94 132.743C1764.49 134.021 1768.02 135.363 1771.49 136.842C1776.61 139.028 1781.68 141.358 1786.77 143.623C1787.56 143.971 1788.36 144.273 1789.15 144.621C1790.02 145.007 1790.74 144.875 1791.54 144.319C1792.95 143.343 1794.37 142.337 1795.92 141.641C1797.45 140.953 1797.94 139.894 1797.8 138.393C1797.63 136.6 1797.55 134.777 1797.17 133.03C1796.24 128.855 1796 124.566 1794.79 120.429C1793.81 117.067 1793.28 113.576 1792.46 110.162C1791.45 105.911 1790.26 101.713 1788.78 97.5984C1787.68 94.5465 1786.7 91.4454 1785.54 88.42C1784.44 85.5458 1783.27 82.6868 1781.94 79.9148C1780.49 76.9045 1778.82 74 1777.25 71.0465C1774.44 65.7179 1770.92 60.8469 1766.98 56.339C1764.45 53.4497 1761.65 50.7307 1758.65 48.3368C1754.24 44.8084 1749.44 41.8321 1744.12 39.7445C1740.84 38.4549 1737.49 37.502 1734.02 36.8628C1729.78 36.0838 1725.54 35.5695 1721.22 36.0838C1719.61 36.2805 1717.99 36.4317 1716.37 36.6321C1711.76 37.207 1707.26 38.2697 1702.91 39.8958C1700.75 40.7051 1698.66 41.6543 1696.55 42.5884C1693.25 44.052 1690.1 45.7652 1686.98 47.5351C1683.25 49.6453 1679.72 52.0543 1676.28 54.6146C1671.45 58.1997 1666.81 61.9815 1662.45 66.115C1659.71 68.7055 1657.01 71.3225 1654.42 74.0567C1652.18 76.4203 1649.94 78.784 1647.8 81.2346C1644.87 84.589 1642.01 88.004 1639.17 91.4341C1637.86 93.0111 1636.7 94.7053 1635.41 96.305C1634.74 97.1333 1634.53 98.0144 1635 98.9258C1635.85 100.533 1636.42 102.208 1636.56 104.307ZM1810.36 72.926C1810.05 73.9168 1810.52 74.5749 1810.83 75.2707C1811.74 77.3885 1812.77 79.4647 1813.56 81.6279C1814.74 84.8424 1815.77 88.1061 1816.84 91.3622C1817.32 92.8258 1817.79 94.3007 1818.18 95.7945C1819.36 100.355 1820.53 104.916 1821.63 109.5C1822.29 112.249 1822.92 115.014 1823.35 117.805C1823.62 119.586 1824.18 121.318 1824.36 123.084C1824.8 127.35 1825.84 131.532 1826.05 135.821C1826.06 135.991 1826.1 136.161 1826.13 136.332C1826.32 137.534 1826.97 138.355 1828.12 138.809C1829.47 139.342 1830.78 139.981 1832.14 140.48C1834.75 141.441 1837.03 142.995 1839.2 144.64C1843.05 147.548 1846.22 151.115 1848.93 155.146C1852 159.722 1853.79 164.763 1854.78 170.11C1855.54 174.18 1855.53 178.313 1855.14 182.42C1855.05 183.422 1855.29 184.069 1856.01 184.651C1858.35 186.527 1860.67 188.422 1863.02 190.286C1867.66 193.962 1872.16 197.816 1876.36 201.961C1880.93 206.465 1885.57 210.905 1889.69 215.866C1892.7 219.493 1895.92 222.927 1898.48 226.913C1898.7 227.265 1899.01 227.613 1899.37 227.798C1899.55 227.896 1900.15 227.654 1900.17 227.514C1900.27 226.762 1900.35 225.979 1900.25 225.234C1899.78 222.012 1899.32 218.786 1898.74 215.579C1897.98 211.366 1897.17 207.161 1896.28 202.97C1895.58 199.699 1894.88 196.417 1893.93 193.217C1892.3 187.711 1890.47 182.261 1888.73 176.789C1888.34 175.568 1888.05 174.297 1887.53 173.136C1885.8 169.309 1884.46 165.334 1882.67 161.526C1881.08 158.118 1879.57 154.673 1877.86 151.319C1875.01 145.748 1872.11 140.212 1868.76 134.925C1866.02 130.583 1863.14 126.321 1860.17 122.131C1857.34 118.152 1854.36 114.295 1851.29 110.498C1847.78 106.16 1844.04 102.042 1840.24 97.9766C1836.57 94.0435 1832.63 90.3714 1828.6 86.7863C1823.35 82.112 1817.82 77.7931 1812.34 73.4063C1811.79 72.9676 1811.22 72.6008 1810.36 72.9298V72.926Z" fill="#124297"/>
<path d="M1513.09 82.1038C1512.4 83.677 1511.15 84.959 1509.85 86.2108C1505.72 90.212 1501.97 94.5686 1498.26 98.9593C1497.21 100.196 1496.01 101.342 1495.15 102.696C1493.39 105.441 1490.85 107.589 1489.39 110.547C1488.94 111.454 1488.29 112.282 1487.63 113.065C1485.42 115.701 1483.69 118.659 1481.87 121.559C1480.88 123.148 1479.78 124.668 1478.75 126.226C1477.66 127.856 1476.42 129.414 1475.56 131.157C1474.92 132.455 1474.27 133.755 1473.61 135.045C1472.18 137.866 1470.79 140.703 1469.35 143.52C1468.84 144.511 1468.25 145.46 1467.7 146.428C1466.44 148.667 1465.07 150.857 1464.58 153.436C1463.4 155.251 1462.81 157.327 1462.02 159.317C1461.18 161.45 1460.2 163.526 1459.58 165.753C1459.17 167.221 1458.43 168.597 1457.81 170C1456.01 174.085 1455.01 178.43 1453.76 182.688C1453.41 183.879 1453.39 185.271 1453.61 186.508C1454.31 190.554 1455.04 194.612 1456.05 198.591C1456.88 201.816 1458.2 204.914 1459.17 208.106C1460.67 213.048 1462.98 217.655 1465.12 222.321C1466.4 225.105 1467.83 227.831 1469.67 230.346C1472 233.515 1473.85 237.04 1476.23 240.168C1479.4 244.32 1482.5 248.529 1486.2 252.266C1487.63 253.71 1488.99 255.268 1490.39 256.743C1492.21 258.653 1493.94 260.665 1495.95 262.401C1496.98 263.301 1498.02 264.189 1499.06 265.074C1502.52 268.017 1505.95 270.978 1509.43 273.882C1511.32 275.463 1513.25 277.002 1515.24 278.462C1519.31 281.446 1523.38 284.449 1527.56 287.281C1530.74 289.441 1534.11 291.316 1537.36 293.374C1539.6 294.784 1541.86 296.149 1544.09 297.564C1545.66 298.558 1547.35 299.421 1548.96 300.381C1549.33 300.601 1549.93 300.453 1550.36 300.476C1551.01 299.651 1551.13 298.804 1551.16 297.946C1551.2 296.573 1551.2 295.2 1551.23 293.824C1551.26 292.602 1550.79 291.668 1549.72 291.04C1549.35 290.825 1549.03 290.511 1548.65 290.341C1546.39 289.357 1544.68 287.659 1543.01 285.946C1542.14 285.046 1541.48 283.915 1540.81 282.841C1539.5 280.742 1537.99 278.783 1537.26 276.329C1536.62 274.166 1536.22 272.006 1536.16 269.768C1536.11 268.399 1535.99 267.033 1535.92 265.668C1535.9 265.241 1535.87 264.798 1535.95 264.386C1536.85 260.011 1538.01 255.707 1540.64 252.008C1541.62 250.624 1542.91 249.444 1544.1 248.211C1547.16 245.061 1550.9 242.989 1555.01 241.624C1556.46 241.147 1558.04 240.939 1559.56 240.863C1562.56 240.72 1565.58 240.512 1568.53 241.298C1573.04 242.505 1577.34 244.093 1580.66 247.614C1582.07 249.104 1583.68 250.39 1584.85 252.118C1586.79 254.992 1588.11 258.108 1588.93 261.482C1589.83 265.226 1589.63 268.973 1589.33 272.744C1589.17 274.669 1588.09 276.272 1587.46 278.027C1586.08 281.82 1583.7 284.883 1580.69 287.572C1578.74 289.304 1576.7 290.783 1574.34 291.853C1573.81 292.095 1573.24 292.273 1572.69 292.474C1571.08 293.063 1570.41 294.001 1570.34 295.752C1570.19 299.697 1570.04 303.637 1569.89 307.582C1569.86 308.183 1569.87 308.784 1569.85 309.386C1569.82 310.672 1570.47 311.519 1571.63 311.931C1574.38 312.91 1576.93 314.313 1579.59 315.452C1582.89 316.858 1586.15 318.371 1589.52 319.623C1590.88 320.13 1592.21 320.727 1593.55 321.298C1595.98 322.342 1598.5 323.144 1600.99 324.048C1604.76 325.421 1608.61 326.6 1612.32 328.14C1612.79 328.336 1613.3 328.435 1613.8 328.552C1614.13 328.631 1614.53 328.575 1614.81 328.733C1618.21 330.655 1622.11 331.157 1625.71 332.515C1627.07 333.026 1628.47 333.449 1629.87 333.865C1632.16 334.554 1634.47 335.2 1636.77 335.862C1636.94 335.911 1637.13 335.888 1637.28 335.968C1639.81 337.333 1642.71 337.394 1645.38 338.297C1648.05 339.201 1650.84 339.784 1653.58 340.495C1656.31 341.206 1659.04 341.954 1661.79 342.601C1665.96 343.588 1670.15 344.507 1674.33 345.437C1674.91 345.566 1675.52 345.593 1676.12 345.657C1677.5 345.808 1678.49 345.4 1679.38 344.171C1680.89 342.091 1682.7 340.283 1684.75 338.661C1686.73 337.087 1688.97 336.089 1691.25 335.17C1694.2 333.982 1697.34 333.4 1700.53 333.362C1704.79 333.313 1708.85 334.172 1712.71 336.066C1714.57 336.978 1716.29 338.101 1717.85 339.372C1719.37 340.593 1720.55 342.227 1721.87 343.69C1723.43 345.422 1724.39 347.487 1725.38 349.575C1726.08 351.053 1726.64 352.528 1727.07 354.102C1727.83 356.889 1727.85 359.718 1727.67 362.535C1727.57 364.229 1727.25 365.958 1726.72 367.569C1725.76 370.481 1724.74 373.343 1722.92 375.945C1721.33 378.226 1719.16 379.844 1717.38 381.883C1715.49 382.684 1714.04 384.258 1712.02 384.863C1710.89 385.199 1709.84 385.835 1708.71 386.232C1706.43 387.037 1704 387.052 1701.62 387.291C1698.68 387.589 1695.78 387.037 1692.98 386.239C1691.27 385.755 1689.67 384.897 1688.05 384.129C1685.15 382.741 1682.81 380.65 1680.62 378.313C1679.14 376.743 1677.89 375.075 1676.97 373.139C1676.6 372.368 1676.26 371.581 1675.84 370.828C1675.3 369.834 1675 368.798 1674.92 367.652C1674.81 365.905 1673.96 364.88 1672.3 364.702C1668.43 364.294 1664.8 362.887 1661.01 362.225C1655 361.181 1649.23 359.192 1643.3 357.812C1640.71 357.206 1638.14 356.575 1635.64 355.626C1634.37 355.142 1632.99 354.96 1631.67 354.597C1627.88 353.542 1624.07 352.555 1620.31 351.375C1616.39 350.142 1612.52 348.743 1608.65 347.359C1607.37 346.897 1605.91 347.007 1604.77 346.103C1602.32 345.559 1600.18 344.193 1597.81 343.467C1595.09 342.635 1592.54 341.421 1589.88 340.495C1586.32 339.266 1582.81 337.881 1579.31 336.52C1578.68 336.278 1578.17 335.643 1577.54 335.495C1575.6 335.049 1573.91 334.051 1572.13 333.256C1571.44 332.95 1570.71 333.317 1570.46 334.009C1570.38 334.247 1570.29 334.504 1570.29 334.754C1570.37 337.068 1570.45 339.383 1570.55 341.697C1570.57 342.121 1570.71 342.541 1570.74 342.968C1570.97 346.043 1571.12 349.125 1571.42 352.192C1571.84 356.541 1572.02 360.913 1572.83 365.22C1573.08 366.563 1573.02 367.962 1573.25 369.308C1573.94 373.445 1574.76 377.56 1575.42 381.701C1576.27 387.033 1577.43 392.302 1578.78 397.517C1579.68 400.996 1580.49 404.494 1581.45 407.954C1582.08 410.265 1582.97 412.504 1583.73 414.777C1584.52 417.121 1585.55 419.368 1586.1 421.807C1586.43 423.286 1587.3 424.643 1587.91 426.062C1589.06 428.731 1590.18 431.42 1591.37 434.075C1591.85 435.168 1592.41 436.246 1593.07 437.237C1594.56 439.442 1595.56 441.9 1596.8 444.233C1597.72 445.973 1598.61 447.731 1599.9 449.248C1600.34 449.77 1600.73 450.337 1601.1 450.915C1603.27 454.304 1605.53 457.617 1608.25 460.608C1609.57 462.064 1610.73 463.664 1612.08 465.093C1615.98 469.219 1620.28 472.899 1625.07 475.943C1627.96 477.778 1630.95 479.525 1634.16 480.72C1636.54 481.609 1638.97 482.433 1641.59 482.645C1644.4 482.875 1647.17 483.518 1649.96 483.927C1651.83 484.199 1653.71 484.358 1655.58 484.592C1658.91 485.012 1662.29 484.838 1665.59 485.239C1669.35 485.693 1673.14 485.394 1676.88 486.022C1677.63 486.147 1678.42 486.082 1679.19 486.052C1681.94 485.95 1684.68 485.837 1687.42 485.704C1691.88 485.492 1696.34 485.334 1700.79 485.02C1703.7 484.815 1706.59 484.373 1709.48 484.036C1713.82 483.533 1718.13 482.849 1722.42 482.058C1725.54 481.487 1728.61 480.708 1731.7 480.047C1734.46 479.453 1737.24 478.904 1740 478.311C1740.58 478.186 1741.14 477.952 1741.71 477.781C1743.6 477.214 1745.48 476.628 1747.37 476.098C1749.27 475.565 1751.18 475.096 1753.08 474.59C1754.38 474.245 1755.11 473.364 1755.37 472.078C1755.42 471.829 1755.42 471.564 1755.44 471.311C1755.76 467.151 1756.96 463.297 1758.98 459.621C1760.11 457.564 1761.47 455.786 1763.16 454.221C1763.54 453.877 1763.83 453.446 1764.2 453.086C1764.62 452.666 1765.02 452.099 1765.54 451.925C1766.57 451.585 1767.28 450.836 1768.13 450.273C1770.64 448.601 1773.38 447.584 1776.35 446.937C1780.48 446.037 1784.54 446.453 1788.63 446.96C1788.96 447.001 1789.28 447.145 1789.59 447.277C1791.95 448.272 1794.09 449.72 1796.51 450.579C1797.73 451.744 1799.62 452.092 1800.42 453.771C1803.35 456.131 1804.95 459.546 1807.27 462.389C1807.52 462.688 1807.68 463.184 1807.65 463.569C1807.53 464.908 1807.95 466.096 1808.44 467.298C1808.92 468.497 1809.11 469.756 1809.14 471.069C1809.21 473.822 1809.11 476.552 1808.7 479.275C1808.66 479.528 1808.68 479.808 1808.58 480.035C1807.59 482.21 1806.78 484.494 1805.53 486.506C1804.06 488.873 1802.68 491.354 1800.44 493.177C1799.78 493.71 1799.22 494.304 1798.43 494.705C1796.98 495.435 1795.59 496.27 1794.29 497.273C1792.63 498.547 1790.6 499.122 1788.53 499.277C1786.57 499.432 1784.6 499.421 1782.68 500.007C1782.12 500.177 1781.47 500.192 1780.9 500.094C1778.12 499.602 1775.35 499.251 1772.61 498.411C1769.48 497.45 1766.83 495.949 1764.53 493.725C1762.92 492.164 1761.3 492.008 1759.15 492.791C1755.3 494.187 1751.31 495.196 1747.38 496.357C1746.97 496.478 1746.53 496.49 1746.13 496.626C1742.05 497.999 1737.79 498.593 1733.65 499.651C1727.9 501.119 1722.04 501.917 1716.2 502.821C1711.72 503.516 1707.22 504.19 1702.65 504.22C1701.12 504.227 1699.58 504.526 1698.05 504.662C1696.34 504.817 1694.63 505.04 1692.93 505.048C1684.5 505.086 1676.08 505.218 1667.67 504.999C1662.36 504.863 1657.04 504.617 1651.79 503.66C1648.41 503.781 1645.19 502.662 1641.85 502.458C1640.4 502.367 1638.96 502.17 1637.51 502.023C1637.34 502.004 1637.15 502.023 1637 501.962C1633.45 500.623 1629.64 500.423 1626.01 499.394C1623.22 498.6 1620.3 498.211 1617.5 497.454C1612.45 496.097 1607.43 494.618 1602.42 493.151C1600.53 492.595 1598.65 491.978 1596.81 491.297C1593.85 490.212 1590.8 489.395 1587.95 487.988C1586.67 487.361 1585.21 487.115 1583.89 486.51C1580.45 484.944 1576.98 483.484 1573.53 481.968C1573.06 481.764 1572.64 481.472 1572.2 481.223C1571.68 480.928 1571.19 480.523 1570.63 480.361C1567.23 479.366 1564.2 477.558 1561.1 475.917C1559.38 475.002 1557.75 473.943 1555.91 473.183C1553.95 472.366 1552.16 471.125 1550.32 470.025C1548.34 468.841 1546.36 467.642 1544.42 466.394C1541.84 464.73 1539.3 462.998 1536.72 461.319C1532.63 458.657 1528.82 455.628 1524.89 452.753C1523.29 451.585 1521.83 450.22 1520.23 449.127C1518.01 447.625 1516.15 445.738 1514.03 444.154C1513.15 443.492 1512.4 442.637 1511.58 441.892C1508.71 439.313 1505.81 436.768 1502.97 434.151C1501.97 433.224 1501.12 432.139 1500.2 431.122C1498.43 429.144 1496.35 427.446 1494.81 425.248C1494.53 424.844 1494.04 424.587 1493.65 424.254C1493.19 423.868 1492.69 423.524 1492.29 423.085C1487.5 417.715 1482.65 412.394 1478.28 406.657C1478.13 406.453 1477.9 406.283 1477.81 406.056C1476.6 403.163 1474.46 400.973 1472.39 398.704C1471.48 397.702 1470.77 396.511 1470.01 395.376C1468.06 392.457 1466 389.601 1464.24 386.572C1462.78 384.065 1460.72 381.894 1459.92 379.016C1458.37 377.458 1457.72 375.359 1456.61 373.536C1455.67 372.001 1454.78 370.435 1453.9 368.866C1453.66 368.423 1453.52 367.92 1453.36 367.436C1453.25 367.115 1453.28 366.684 1453.08 366.46C1451.12 364.316 1450.53 361.457 1449.18 358.999C1447.83 356.529 1446.89 353.833 1445.74 351.243C1445.29 350.225 1444.74 349.246 1444.33 348.213C1442.86 344.56 1441.32 340.93 1440.02 337.216C1439.15 334.724 1437.96 332.349 1437.3 329.796C1436.25 325.738 1434.71 321.832 1433.79 317.717C1433.22 315.153 1432.32 312.63 1431.7 310.055C1430.81 306.307 1429.94 302.548 1429.32 298.744C1429.18 297.9 1428.97 297.068 1428.78 296.233C1428.71 295.9 1428.55 295.578 1428.5 295.242C1428.08 292.451 1427.67 289.656 1427.27 286.858C1427.06 285.417 1426.86 283.972 1426.68 282.527C1426.2 278.7 1425.65 274.881 1425.3 271.042C1424.97 267.378 1424.73 263.69 1424.69 260.011C1424.63 252.281 1424.65 244.551 1424.78 236.821C1424.82 233.92 1425.28 231.023 1425.53 228.126C1425.6 227.355 1425.59 226.58 1425.67 225.812C1425.93 223.255 1426.19 220.695 1426.48 218.142C1426.68 216.444 1426.92 214.75 1427.19 213.06C1427.76 209.425 1428.29 205.783 1428.96 202.168C1430.19 195.599 1431.63 189.076 1433.46 182.647C1434.05 180.604 1434.88 178.638 1435.56 176.618C1436.35 174.262 1437.08 171.891 1437.83 169.524C1437.96 169.115 1438.02 168.677 1438.19 168.291C1440.26 163.582 1441.43 158.549 1443.44 153.825C1445.29 151.22 1445.65 147.877 1447.66 145.35C1447.82 145.158 1447.92 144.893 1447.95 144.647C1448.29 142.306 1449.4 140.298 1450.55 138.282C1451.48 136.652 1452.19 134.898 1453.03 133.215C1453.37 132.534 1453.81 131.91 1454.18 131.248C1454.65 130.431 1455.1 129.607 1455.54 128.775C1456.3 127.349 1457.04 125.916 1457.79 124.486C1458.58 122.974 1459.4 121.476 1460.16 119.952C1461.46 117.343 1463.02 114.896 1464.7 112.513C1466.08 110.566 1467.33 108.523 1468.6 106.508C1470.25 103.906 1471.98 101.364 1473.88 98.9365C1475.73 96.5805 1477.42 94.1034 1479.2 91.6982C1479.86 90.8057 1480.56 89.9434 1481.29 89.1039C1483.09 87.0352 1484.91 84.9893 1486.71 82.9282C1488.63 80.7347 1490.52 78.5186 1492.46 76.3441C1493.42 75.2776 1494.42 74.2452 1495.47 73.2657C1497.14 71.6963 1498.55 69.881 1500.37 68.4364C1501.62 67.4455 1502.13 65.8232 1501.5 64.2197C1500.07 60.574 1500.16 56.8792 1500.67 53.0823C1501.25 48.7181 1503.01 44.9477 1505.55 41.3966C1507.59 38.5602 1510.12 36.3176 1512.84 34.2225C1512.98 34.1166 1513.09 33.9389 1513.24 33.9048C1515.5 33.3602 1517.32 31.7681 1519.61 31.2954C1521.88 30.8264 1524.12 30.1798 1526.45 30.1646C1531.98 30.1344 1537.16 31.2954 1541.71 34.612C1543.87 35.444 1545.34 37.1345 1546.91 38.7077C1548.75 40.5494 1550.22 42.603 1551.03 45.1292C1551.36 46.1692 1552.01 47.1184 1552.58 48.0714C1553.39 49.4215 1553.89 50.8094 1553.9 52.4318C1553.91 54.1374 1554.38 55.8468 1554.32 57.541C1554.21 60.9673 1554 64.405 1552.21 67.4985C1551.96 67.9334 1551.89 68.478 1551.67 68.9394C1550.89 70.5504 1550.12 72.1085 1548.69 73.3603C1546.82 74.9864 1545.25 76.9454 1543.5 78.704C1541.83 80.3717 1539.75 81.3852 1537.55 82.1643C1537.15 82.3042 1536.69 82.3118 1536.31 82.4895C1532.62 84.2556 1528.66 84.2405 1524.72 84.1233C1523.54 84.0854 1522.36 83.7261 1521.21 83.3858C1519.9 82.9963 1518.57 82.5878 1517.36 81.9601C1515.91 81.2075 1514.58 81.3209 1513.09 82.1V82.1038ZM1445.55 228.592C1444.7 229.389 1444.62 230.237 1444.62 231.106C1444.64 235.312 1444.42 239.509 1444.19 243.711C1443.98 247.478 1444.08 251.267 1444.15 255.041C1444.21 258.384 1444.46 261.724 1444.55 265.067C1444.62 267.722 1444.43 270.388 1445.09 273.009C1445.34 273.999 1445.4 275.039 1445.54 276.057C1446.13 280.126 1446.57 284.222 1447.34 288.257C1448.47 294.228 1449.42 300.238 1451.06 306.107C1451.47 307.589 1451.79 309.098 1452.19 310.585C1452.67 312.32 1453.24 314.03 1453.69 315.773C1454.76 320.009 1455.87 324.229 1457.51 328.295C1458.62 331.074 1459.62 333.899 1460.75 336.675C1461.98 339.685 1463.4 342.624 1464.52 345.668C1465.2 347.517 1465.96 349.321 1466.85 351.065C1468.84 354.96 1470.87 358.833 1472.88 362.717C1473.31 363.552 1473.67 364.433 1474.13 365.258C1476.1 368.835 1478.31 372.281 1480.4 375.79C1481.65 377.889 1483.27 379.78 1484.55 381.902C1486.06 384.379 1487.87 386.674 1489.58 389.034C1490.33 390.066 1491.27 390.982 1491.89 392.086C1493.28 394.586 1495.13 396.703 1497.09 398.742C1497.5 399.169 1497.82 399.695 1498.22 400.134C1499.65 401.711 1500.67 403.609 1502.32 405.042C1503.8 406.328 1505.07 407.86 1506.39 409.316C1508.69 411.846 1510.95 414.398 1513.23 416.94C1514.41 417.435 1514.83 418.691 1515.76 419.451C1517.61 420.967 1519.42 422.533 1521.21 424.118C1523.85 426.44 1526.43 428.811 1529.06 431.14C1529.96 431.935 1530.89 432.683 1531.84 433.421C1534 435.104 1536.16 436.775 1538.33 438.439C1540.49 440.1 1542.63 441.794 1544.91 443.299C1548.48 445.651 1552.08 447.969 1555.53 450.499C1556.01 450.851 1556.38 451.434 1556.9 451.615C1558.79 452.266 1560.4 453.396 1562.13 454.342C1564.98 455.9 1567.85 457.401 1570.71 458.929C1570.86 459.008 1570.99 459.133 1571.14 459.209C1571.91 459.576 1572.67 459.939 1573.44 460.294C1573.83 460.472 1574.25 460.589 1574.61 460.805C1576.88 462.185 1579.27 463.324 1581.73 464.337C1582.6 464.693 1583.42 465.15 1584.25 465.596C1585.28 466.148 1586.31 466.228 1586.6 465.676C1587.01 464.882 1586.63 464.227 1586.17 463.554C1584.52 461.168 1582.84 458.801 1581.33 456.327C1579.11 452.674 1576.95 448.968 1575.19 445.065C1574.56 443.658 1573.8 442.327 1573.14 440.943C1572.19 438.931 1571.34 436.87 1570.46 434.82C1569.48 432.547 1568.6 430.229 1567.66 427.941C1566.46 425.018 1565.58 421.966 1564.58 418.963C1564.01 417.258 1563.42 415.559 1562.94 413.827C1562.13 410.942 1561.46 408.015 1560.63 405.137C1558.9 399.12 1557.57 393.02 1556.52 386.852C1555.94 383.388 1555.24 379.943 1554.62 376.486C1554.4 375.306 1554.24 374.115 1554.1 372.924C1553.75 370.121 1553.44 367.311 1553.09 364.505C1552.74 361.707 1552.28 358.916 1552.01 356.106C1551.61 352.01 1551.28 347.907 1551.06 343.796C1550.78 338.657 1550.62 333.51 1550.44 328.363C1550.4 327.421 1550.42 326.472 1550.5 325.53C1550.58 324.392 1550.14 323.496 1549.28 322.834C1548.47 322.21 1547.6 321.642 1546.71 321.151C1544.6 319.99 1542.49 318.851 1540.34 317.774C1538.13 316.666 1536.06 315.297 1533.85 314.185C1532.03 313.27 1530.33 312.109 1528.59 311.038C1526.78 309.923 1524.95 308.822 1523.18 307.654C1519.31 305.116 1515.46 302.556 1511.62 299.973C1510.77 299.402 1510.06 298.626 1509.21 298.059C1506.43 296.202 1503.8 294.153 1501.2 292.065C1499.93 291.048 1498.55 290.163 1497.31 289.115C1494.7 286.907 1492.12 284.653 1489.57 282.372C1486.26 279.415 1482.84 276.598 1479.78 273.353C1477.61 271.061 1475.29 268.898 1473.12 266.591C1471.77 265.154 1470.34 263.785 1469.06 262.28C1467.24 260.124 1465.56 257.844 1463.75 255.677C1461.72 253.253 1459.8 250.749 1458.03 248.128C1457.22 246.922 1456.56 245.606 1455.67 244.452C1453.43 241.533 1451.63 238.356 1449.8 235.172C1448.98 233.75 1448.57 232.173 1447.74 230.777C1447.21 229.9 1446.76 228.973 1445.56 228.588L1445.55 228.592ZM1535.17 57.1023C1535.31 56.1531 1535.16 55.1888 1534.45 54.3152C1534.14 53.937 1534.03 53.3886 1533.86 52.9046C1533.59 52.1558 1533.2 51.5545 1532.46 51.1612C1531.93 50.8851 1531.48 50.4729 1531.03 50.0796C1530.48 49.5993 1529.85 49.4555 1529.14 49.4215C1527.57 49.3421 1526.11 49.7014 1524.6 50.0871C1522.59 50.6015 1521.35 51.9099 1520.42 53.5891C1519.48 55.2909 1519.44 57.0343 1519.79 59.0197C1520.25 61.6367 1521.8 63.2364 1523.86 64.2424C1526.97 65.7475 1530.76 65.2861 1533.12 62.2909C1533.59 61.701 1533.77 60.8841 1534.25 60.298C1535 59.3714 1535.29 58.3655 1535.17 57.1023ZM1555.3 267.215C1555.15 271.954 1558.42 274.824 1562.64 275.009C1566.81 275.194 1570.09 271.844 1570.3 267.99C1570.49 264.235 1566.87 259.856 1563.49 259.95C1559.07 260.071 1554.98 262.775 1555.3 267.215ZM1694.61 353.712C1695.07 354.756 1694.92 355.671 1694.28 356.446C1693.27 357.683 1693.02 359.026 1693.44 360.546C1693.55 360.95 1693.51 361.397 1693.53 361.828C1693.58 363.499 1694.45 364.736 1695.67 365.753C1696.26 366.245 1696.94 366.619 1697.58 367.05C1698.79 367.871 1700.12 368.034 1701.52 367.78C1702.8 367.55 1703.97 367.137 1705.06 366.362C1707.78 364.426 1708.95 360.065 1707.25 357.195C1706.24 355.482 1704.8 354.105 1702.94 353.27C1702.48 353.065 1701.96 352.861 1701.47 352.865C1699.85 352.888 1698.21 352.653 1696.64 353.323C1696.11 353.549 1695.48 353.553 1694.61 353.712ZM1782.26 465.895C1780.24 465.808 1778.29 466.459 1776.88 468.1C1774.37 471.054 1773.82 475.418 1777.41 478.852C1781.19 482.463 1787.81 480.421 1789.22 475.993C1790.7 471.349 1788.15 465.906 1782.26 465.895Z" fill="#2F9BED"/>
<path d="M1241.54 186.558L1370.4 2.10156H1104.32L1094.37 80.0897H1242.44L1120.37 249.835L1123.43 252.891C1129.55 249.835 1138.21 247.029 1149.43 244.48C1160.64 241.935 1172.11 240.914 1183.84 241.425C1213.4 241.935 1237.61 249.835 1256.47 265.125C1275.84 280.419 1285.53 301.574 1285.53 328.587C1285.53 342.353 1283.23 355.351 1278.65 367.585C1274.57 379.819 1268.45 390.779 1260.3 400.464C1252.14 410.149 1241.94 418.05 1229.71 424.165C1217.48 429.773 1203.2 432.575 1186.89 432.575C1169.56 433.086 1151.97 429.263 1134.14 421.109C1116.29 412.952 1101.77 400.464 1090.55 383.643L1041.62 447.105C1053.85 462.395 1068.12 474.886 1084.43 484.571C1101.26 493.746 1118.59 500.625 1136.43 505.216C1154.78 509.293 1171.85 511.331 1187.66 511.331C1220.79 510.31 1248.83 504.195 1271.76 492.982C1295.21 481.765 1314.07 466.982 1328.35 448.633C1343.13 430.284 1353.58 410.403 1359.69 388.994C1366.32 367.585 1369.64 346.43 1369.64 325.532C1369.64 297.494 1363.52 273.283 1351.28 252.891C1339.05 232.503 1322.99 216.703 1303.11 205.486C1284.2 194.334 1263.68 188.026 1241.54 186.558Z" fill="#2F9BED"/>
<path d="M897.252 4.04688H919.122L787.872 660.339H765.992L897.252 4.04688Z" fill="#2F9BED"/>
</svg>
